<svg xmlns="http://www.w3.org/2000/svg" width="1200" height="1000" viewBox="0 0 1200 1000"><defs><radialGradient id="p"><stop stop-color="#e3d5b6"/><stop offset="1" stop-color="#baa887"/></radialGradient></defs><path fill="#183b34" d="M0 0h1200v1000H0z"/><circle cx="600" cy="500" r="365" fill="#061d18"/><circle cx="600" cy="480" r="340" fill="url(#p)"/><circle cx="600" cy="480" r="270" fill="none" stroke="#a99572" stroke-width="2"/><g fill="#6f8254"><ellipse cx="540" cy="460" rx="95" ry="45" transform="rotate(-25 540 460)"/><ellipse cx="640" cy="530" rx="105" ry="48" transform="rotate(20 640 530)"/><ellipse cx="660" cy="395" rx="75" ry="36" transform="rotate(-50 660 395)"/></g><g fill="#c3764e"><circle cx="510" cy="560" r="38"/><circle cx="720" cy="485" r="32"/><circle cx="560" cy="350" r="24"/></g><g fill="#e9d69d"><circle cx="555" cy="490" r="10"/><circle cx="623" cy="443" r="12"/><circle cx="672" cy="553" r="10"/></g><path d="M840 140v710M878 140v710M870 140v130M886 140v130" stroke="#c6b282" stroke-width="7" fill="none"/></svg>
